Coordinates
version=1
nRows=4
nColumns=114
inDegrees=yes

Units are S.I. units (second, meters, Newtons, ...)
If the header above contains a line with 'inDegrees', this indicates whether rotational values are in degrees (yes) or radians (no).

endheader 
time	pelvis_tilt	pelvis_list	pelvis_rotation	pelvis_tx	pelvis_ty	pelvis_tz	hip_flexion_l	hip_adduction_l	hip_rotation_l	hip_flexion_r	hip_adduction_r	hip_rotation_r	knee_angle_l	knee_angle_r	ankle_angle_l	ankle_angle_r	subtalar_angle_l	subtalar_angle_r	mtp_angle_l	mtp_angle_r	lumbar_extension	lumbar_bending	lumbar_rotation	arm_flex_l	arm_add_l	arm_rot_l	arm_flex_r	arm_add_r	arm_rot_r	elbow_flex_l	elbow_flex_r	pro_sup_l	pro_sup_r	addbrev_l/activation	addlong_l/activation	addmagDist_l/activation	addmagIsch_l/activation	addmagMid_l/activation	addmagProx_l/activation	bflh_l/activation	bfsh_l/activation	edl_l/activation	ehl_l/activation	fdl_l/activation	fhl_l/activation	gaslat_l/activation	gasmed_l/activation	glmax1_l/activation	glmax2_l/activation	glmax3_l/activation	glmed1_l/activation	glmed2_l/activation	glmed3_l/activation	glmin1_l/activation	glmin2_l/activation	glmin3_l/activation	grac_l/activation	iliacus_l/activation	perbrev_l/activation	perlong_l/activation	piri_l/activation	psoas_l/activation	recfem_l/activation	sart_l/activation	semimem_l/activation	semiten_l/activation	soleus_l/activation	tfl_l/activation	tibant_l/activation	tibpost_l/activation	vasint_l/activation	vaslat_l/activation	vasmed_l/activation	addbrev_r/activation	addlong_r/activation	addmagDist_r/activation	addmagIsch_r/activation	addmagMid_r/activation	addmagProx_r/activation	bflh_r/activation	bfsh_r/activation	edl_r/activation	ehl_r/activation	fdl_r/activation	fhl_r/activation	gaslat_r/activation	gasmed_r/activation	glmax1_r/activation	glmax2_r/activation	glmax3_r/activation	glmed1_r/activation	glmed2_r/activation	glmed3_r/activation	glmin1_r/activation	glmin2_r/activation	glmin3_r/activation	grac_r/activation	iliacus_r/activation	perbrev_r/activation	perlong_r/activation	piri_r/activation	psoas_r/activation	recfem_r/activation	sart_r/activation	semimem_r/activation	semiten_r/activation	soleus_r/activation	tfl_r/activation	tibant_r/activation	tibpost_r/activation	vasint_r/activation	vaslat_r/activation	vasmed_r/activation	
          7.36000000	          9.58848115	          4.51135747	        -25.48036160	         -2.60409096	          0.95260181	          0.03801021	         18.44926316	         -8.45383499	         -7.37029752	         -7.39051114	        -33.73884913	         -4.29873569	         31.91416087	         52.83843693	        -10.87151552	        -37.67510552	        -22.84699438	        -34.97208916	        -13.95417840	          0.40042149	         20.26128857	          8.40958373	        -20.48738694	       -408.59387666	        -76.10390414	       -400.39773314	       -294.85822172	        -79.39062463	        -96.75196860	         63.52364869	        126.41258869	         49.07339305	        101.25134243	          0.01198939	          0.01033431	          0.04111772	          0.07355294	          0.01729477	          0.01899737	          0.05666231	          0.04635394	          0.26713040	          0.02245005	          0.03048139	          0.06719735	          0.10655057	          0.07959386	          0.10028405	          0.20811181	          0.06120528	          0.30447064	          0.18395710	          0.14418044	          0.11160751	          0.09092782	          0.13066367	          0.01249393	          0.04468653	          0.05848340	          0.03906963	          0.09695416	          0.07743573	          0.24986949	          0.10612008	          0.02826726	          0.03943418	          0.55302986	          0.11712970	          0.27857636	          0.08500984	          0.34289046	          0.17046146	          0.43313214	          0.15585519	          0.28154901	          0.01000660	          0.01330119	          0.07295264	          0.27280866	          0.09369458	          0.39185670	          0.25420653	          0.15144700	          0.03372098	          0.05300680	          0.03883111	          0.09134865	          0.02486870	          0.07430016	          0.01010449	          0.01001534	          0.02488630	          0.06198421	          0.01004257	          0.19697602	          0.03996342	          0.24087965	          0.33008768	          0.02132646	          0.02248295	          0.03787340	          0.51809665	          0.09528702	          0.63531899	          0.10815278	          0.14560323	          0.07322049	          0.25136693	          0.02742952	          0.24452055	          0.01000311	          0.01000109	          0.01000227	
          7.37000000	          8.61168424	          4.74944744	        -21.70850209	         -2.57668178	          0.95481349	          0.03744969	         17.90229413	         -7.38611054	         -5.13387670	         -9.94913392	        -30.74918322	         -5.68140777	         30.56700953	         52.05439707	         -8.88471287	        -40.56021067	        -20.96671777	        -34.91551541	        -17.11714485	          0.54057898	         20.71886891	          5.02431367	        -27.65536733	       -456.29223300	        -65.48372613	       -437.52719495	       -248.50098024	        -72.71913386	        -55.09236155	         98.49875117	        133.31057125	         18.80545691	        111.19465564	          0.01001296	          0.01169884	          0.03426569	          0.06129486	          0.01441428	          0.01583534	          0.04721881	          0.03863353	          0.32241992	          0.17708317	          0.02540281	          0.05599842	          0.08879249	          0.06632838	          0.08357162	          0.17342720	          0.05100495	          0.25372711	          0.15330249	          0.12015736	          0.09301207	          0.07578262	          0.10896025	          0.01041630	          0.04260029	          0.15512812	          0.06440011	          0.19526533	          0.06453426	          0.20822480	          0.08843570	          0.02521466	          0.03286715	          0.46085860	          0.10701278	          0.62569287	          0.07084208	          0.28574223	          0.14205131	          0.36094357	          0.12988579	          0.23462753	          0.01160932	          0.01963558	          0.06080495	          0.22735815	          0.16676874	          0.32656726	          0.29439826	          0.12620980	          0.02810447	          0.04417273	          0.03235966	          0.07612394	          0.02072955	          0.06191712	          0.02621764	          0.01000939	          0.02074232	          0.05165504	          0.01001914	          0.16414965	          0.03331387	          0.20075525	          0.27507453	          0.01777426	          0.01873647	          0.03157151	          0.43174965	          0.07940623	          0.52943636	          0.13788670	          0.23612467	          0.06101715	          0.20947720	          0.05697908	          0.32621955	          0.01000426	          0.01000151	          0.01000312	
          7.38000000	          7.73745609	          4.84117573	        -17.72024009	         -2.55352609	          0.96172373	          0.03665241	         17.32297942	         -6.61149827	         -2.81098200	        -11.72148097	        -27.00698914	         -6.31464558	         29.28075062	         51.35476070	         -7.62681962	        -42.10393298	        -18.54374089	        -33.34470197	        -17.67741864	          0.68201408	         20.82641187	          1.15097316	        -30.86271793	       -441.94069497	        -43.69376752	       -438.38735257	       -263.48289897	        -58.38082367	        -61.44274822	        105.78317100	        138.34460210	         17.24649701	        110.89844449	          0.01004289	          0.23255995	          0.02855536	          0.05107952	          0.01201343	          0.01320216	          0.03934971	          0.41552983	          0.26868528	          0.16751672	          0.02119009	          0.04666712	          0.07399412	          0.05527382	          0.06964370	          0.14452298	          0.04250442	          0.21144304	          0.12775499	          0.10013267	          0.13637930	          0.18069433	          0.10650087	          0.06907170	          0.68086102	          0.13051904	          0.05366780	          0.16272399	          0.68816965	          0.17352223	          0.56076675	          0.02101920	          0.02740803	          0.38404998	          0.19552056	          0.52141192	          0.05904744	          0.23811870	          0.11837613	          0.30078644	          0.10826329	          0.19553082	          0.01855547	          0.02090330	          0.09139812	          0.26210882	          0.13898045	          0.27230401	          0.32620590	          0.10518381	          0.06331773	          0.04219906	          0.02696653	          0.06343668	          0.01727655	          0.05159782	          0.02185117	          0.01000554	          0.01728711	          0.04304655	          0.01001269	          0.13679304	          0.02776999	          0.16741015	          0.22923176	          0.01481346	          0.01561422	          0.02631558	          0.35979749	          0.06617244	          0.44120242	          0.11492843	          0.19677935	          0.05084764	          0.17456871	          0.14545124	          0.27185511	          0.01000608	          0.01000215	          0.01000444	
          7.39000000	          6.92990702	          4.71335191	        -13.73812311	         -2.53246290	          0.97075049	          0.03489566	         16.60546288	         -6.15430545	         -0.45471843	        -12.73358468	        -23.01527441	         -6.43910153	         28.15008446	         50.79554711	         -6.00076139	        -41.03072792	        -15.58795641	        -28.65123270	        -16.32414194	          0.82706337	         20.49392308	         -2.55492909	        -32.50914849	       -430.88617079	        -26.78916026	       -446.19949719	       -274.28520383	        -49.11045654	        -57.86455624	        105.47666925	        141.58955970	         23.68408318	        106.67717100	          0.01427693	          0.19381339	          0.02379710	          0.04256704	          0.01001480	          0.01101834	          0.03279173	          0.34627595	          0.22390535	          0.13959828	          0.03968185	          0.05559947	          0.15005934	          0.20517942	          0.05803738	          0.12043633	          0.03542080	          0.17620439	          0.10646564	          0.08344573	          0.11366319	          0.15058853	          0.08875907	          0.05756308	          0.56738607	          0.10877319	          0.08155055	          0.13560768	          0.57347632	          0.63276243	          0.46730730	          0.01751647	          0.02284156	          0.56322925	          0.16303113	          0.43451026	          0.04996931	          0.22939973	          0.09864728	          0.28806866	          0.09655346	          0.16297596	          0.01550030	          0.01764870	          0.07669150	          0.26199847	          0.11582118	          0.32926840	          0.47770979	          0.08766269	          0.05277311	          0.03516615	          0.02247224	          0.05286395	          0.01439837	          0.04299836	          0.01821060	          0.01000539	          0.01440740	          0.03587257	          0.01002003	          0.11399543	          0.02314774	          0.25775117	          0.19105206	          0.01234589	          0.01301228	          0.02193345	          0.64098583	          0.05514445	          0.41781378	          0.09580810	          0.16398843	          0.04237305	          0.14548515	          0.28362916	          0.22654676	          0.01000339	          0.01000119	          0.01000250	
